<?xml version="1.0" encoding="utf-8"?>
<!-- Generator: Adobe Adobe Illustrator 29.2.0, SVG Export Plug-In . SVG Version: 6.00 Build 0)  -->
<svg version="1.1" id="Layer_1"
	xmlns="http://www.w3.org/2000/svg"
	xmlns:xlink="http://www.w3.org/1999/xlink" x="0px" y="0px" width="200px" height="100px" viewBox="0 0 200 100" style="enable-background:new 0 0 200 100;" xml:space="preserve">
	<style type="text/css">
	.st0{stroke:#D1D1D1;stroke-miterlimit:10;}
	</style>
	<path class="st0" d="M9.88,38.19V2.36c0-0.94,0.76-1.71,1.71-1.71h8.58c0.94,0,1.71,0.76,1.71,1.71v35.83
	c0,0.94-0.76,1.71-1.71,1.71h-8.58C10.64,39.9,9.88,39.14,9.88,38.19z"/>
	<g>
		<g>
			<path class="st0" d="M11.58,39.9c-0.94,0-1.71-0.76-1.71-1.71V2.54H2.46c-0.94,0-1.71,0.76-1.71,1.71v57.94
			c0,0.94,0.76,1.71,1.71,1.71h10.58c0.94,0,1.71-0.76,1.71-1.71V39.9H11.58z"/>
		</g>
	</g>
	<path class="st0" d="M25.75,38.19V2.36c0-0.94,0.76-1.71,1.71-1.71h8.58c0.94,0,1.71,0.76,1.71,1.71v35.83
	c0,0.94-0.76,1.71-1.71,1.71h-8.58C26.51,39.9,25.75,39.14,25.75,38.19z"/>
	<g>
		<g>
			<path class="st0" d="M27.46,39.9c-0.94,0-1.71-0.76-1.71-1.71V2.54h-3.88v35.65c0,0.94-0.76,1.71-1.71,1.71h-3.42v22.29
			c0,0.94,0.76,1.71,1.71,1.71h10.58c0.94,0,1.71-0.76,1.71-1.71V39.9H27.46z"/>
		</g>
	</g>
	<g>
		<g>
			<path class="st0" d="M45.04,2.54h-7.29v35.65c0,0.94-0.76,1.71-1.71,1.71h-3.29v22.29c0,0.94,0.76,1.71,1.71,1.71h10.58
			c0.94,0,1.71-0.76,1.71-1.71V4.25C46.75,3.31,45.99,2.54,45.04,2.54z"/>
		</g>
	</g>
	<path class="st0" d="M57.88,38.19V2.36c0-0.94,0.76-1.71,1.71-1.71h8.58c0.94,0,1.71,0.76,1.71,1.71v35.83
	c0,0.94-0.76,1.71-1.71,1.71h-8.58C58.64,39.9,57.88,39.14,57.88,38.19z"/>
	<g>
		<g>
			<path class="st0" d="M59.58,39.9c-0.94,0-1.71-0.76-1.71-1.71V2.54h-7.42c-0.94,0-1.71,0.76-1.71,1.71v57.94
			c0,0.94,0.76,1.71,1.71,1.71h10.58c0.94,0,1.71-0.76,1.71-1.71V39.9H59.58z"/>
		</g>
	</g>
	<path class="st0" d="M73.75,38.19V2.36c0-0.94,0.76-1.71,1.71-1.71h8.58c0.94,0,1.71,0.76,1.71,1.71v35.83
	c0,0.94-0.76,1.71-1.71,1.71h-8.58C74.51,39.9,73.75,39.14,73.75,38.19z"/>
	<g>
		<g>
			<path class="st0" d="M75.46,39.9c-0.94,0-1.71-0.76-1.71-1.71V2.54h-3.88v35.65c0,0.94-0.76,1.71-1.71,1.71h-3.42v22.29
			c0,0.94,0.76,1.71,1.71,1.71h10.58c0.94,0,1.71-0.76,1.71-1.71V39.9H75.46z"/>
		</g>
	</g>
	<path class="st0" d="M89.88,38.19V2.36c0-0.94,0.76-1.71,1.71-1.71h8.58c0.94,0,1.71,0.76,1.71,1.71v35.83
	c0,0.94-0.76,1.71-1.71,1.71h-8.58C90.64,39.9,89.88,39.14,89.88,38.19z"/>
	<g>
		<g>
			<path class="st0" d="M91.58,39.9c-0.94,0-1.71-0.76-1.71-1.71V2.54h-4.12v35.65c0,0.94-0.76,1.71-1.71,1.71h-3.29v22.29
			c0,0.94,0.76,1.71,1.71,1.71h10.58c0.94,0,1.71-0.76,1.71-1.71V39.9H91.58z"/>
		</g>
	</g>
	<g>
		<g>
			<path class="st0" d="M109.04,2.54h-7.17v35.65c0,0.94-0.76,1.71-1.71,1.71h-3.42v22.29c0,0.94,0.76,1.71,1.71,1.71h10.58
			c0.94,0,1.71-0.76,1.71-1.71V4.25C110.75,3.31,109.99,2.54,109.04,2.54z"/>
		</g>
	</g>
	<path class="st0" d="M121.88,38.19V2.36c0-0.94,0.76-1.71,1.71-1.71h8.58c0.94,0,1.71,0.76,1.71,1.71v35.83
	c0,0.94-0.76,1.71-1.71,1.71h-8.58C122.64,39.9,121.88,39.14,121.88,38.19z"/>
	<g>
		<g>
			<path class="st0" d="M123.58,39.9c-0.94,0-1.71-0.76-1.71-1.71V2.54h-7.42c-0.94,0-1.71,0.76-1.71,1.71v57.94
			c0,0.94,0.76,1.71,1.71,1.71h10.58c0.94,0,1.71-0.76,1.71-1.71V39.9H123.58z"/>
		</g>
	</g>
	<path class="st0" d="M137.75,38.19V2.36c0-0.94,0.76-1.71,1.71-1.71h8.58c0.94,0,1.71,0.76,1.71,1.71v35.83
	c0,0.94-0.76,1.71-1.71,1.71h-8.58C138.51,39.9,137.75,39.14,137.75,38.19z"/>
	<g>
		<g>
			<path class="st0" d="M139.46,39.9c-0.94,0-1.71-0.76-1.71-1.71V2.54h-3.88v35.65c0,0.94-0.76,1.71-1.71,1.71h-3.42v22.29
			c0,0.94,0.76,1.71,1.71,1.71h10.58c0.94,0,1.71-0.76,1.71-1.71V39.9H139.46z"/>
		</g>
	</g>
	<g>
		<g>
			<path class="st0" d="M157.04,2.54h-7.29v35.65c0,0.94-0.76,1.71-1.71,1.71h-3.29v22.29c0,0.94,0.76,1.71,1.71,1.71h10.58
			c0.94,0,1.71-0.76,1.71-1.71V4.25C158.75,3.31,157.99,2.54,157.04,2.54z"/>
		</g>
	</g>
	<path class="st0" d="M160.75,62.19V4.25c0-0.94,0.76-1.71,1.71-1.71h10.58c0.94,0,1.71,0.76,1.71,1.71v57.94
	c0,0.94-0.76,1.71-1.71,1.71h-10.58C161.51,63.9,160.75,63.14,160.75,62.19z"/>
</svg>
