<svg xmlns="http://www.w3.org/2000/svg"
	xmlns:xlink="http://www.w3.org/1999/xlink" version="1.1" id="Layer_1" x="0px" y="0px" viewBox="0 10 160 70" width="160px" height="70px" style="enable-background:new 0 0 200 100;" xml:space="preserve">
	<style type="text/css">
	.st0{stroke:#d4dadc;stroke-miterlimit:10;}
	</style>
	<path id="C0" class="st0" d="M12.46,50.65c-0.94,0-1.71-0.76-1.71-1.71V13.29H3.34c-0.94,0-1.71,0.76-1.71,1.71v57.94    c0,0.94,0.76,1.71,1.71,1.71h10.58c0.94,0,1.71-0.76,1.71-1.71V50.65H12.46z"/>
	<path id="C#0" class="st0" d="M10.76,48.94V13.11c0-0.94,0.76-1.71,1.71-1.71h8.58c0.94,0,1.71,0.76,1.71,1.71v35.83  c0,0.94-0.76,1.71-1.71,1.71h-8.58C11.52,50.65,10.76,49.89,10.76,48.94z"/>
	<path id="D0" class="st0" d="M28.34,50.65c-0.94,0-1.71-0.76-1.71-1.71V13.29h-3.88v35.65c0,0.94-0.76,1.71-1.71,1.71h-3.42v22.29    c0,0.94,0.76,1.71,1.71,1.71h10.58c0.94,0,1.71-0.76,1.71-1.71V50.65H28.34z"/>
	<path id="D#0" class="st0" d="M26.63,48.94V13.11c0-0.94,0.76-1.71,1.71-1.71h8.58c0.94,0,1.71,0.76,1.71,1.71v35.83  c0,0.94-0.76,1.71-1.71,1.71h-8.58C27.4,50.65,26.63,49.89,26.63,48.94z"/>
	<path id="E0" class="st0" d="M45.92,13.29h-7.29v35.65c0,0.94-0.76,1.71-1.71,1.71h-3.29v22.29c0,0.94,0.76,1.71,1.71,1.71h10.58    c0.94,0,1.71-0.76,1.71-1.71V15C47.63,14.06,46.87,13.29,45.92,13.29z"/>
	<path id="F0" class="st0" d="M60.46,50.65c-0.94,0-1.71-0.76-1.71-1.71V13.29h-7.42c-0.94,0-1.71,0.76-1.71,1.71v57.94    c0,0.94,0.76,1.71,1.71,1.71h10.58c0.94,0,1.71-0.76,1.71-1.71V50.65H60.46z"/>
	<path id="F#0" class="st0" d="M58.76,48.94V13.11c0-0.94,0.76-1.71,1.71-1.71h8.58c0.94,0,1.71,0.76,1.71,1.71v35.83  c0,0.94-0.76,1.71-1.71,1.71h-8.58C59.52,50.65,58.76,49.89,58.76,48.94z"/>
	<path id="G0" class="st0" d="M76.34,50.65c-0.94,0-1.71-0.76-1.71-1.71V13.29h-3.88v35.65c0,0.94-0.76,1.71-1.71,1.71h-3.42v22.29    c0,0.94,0.76,1.71,1.71,1.71h10.58c0.94,0,1.71-0.76,1.71-1.71V50.65H76.34z"/>
	<path id="G#0" class="st0" d="M74.63,48.94V13.11c0-0.94,0.76-1.71,1.71-1.71h8.58c0.94,0,1.71,0.76,1.71,1.71v35.83  c0,0.94-0.76,1.71-1.71,1.71h-8.58C75.4,50.65,74.63,49.89,74.63,48.94z"/>
	<path id="A0" class="st0" d="M92.46,50.65c-0.94,0-1.71-0.76-1.71-1.71V13.29h-4.12v35.65c0,0.94-0.76,1.71-1.71,1.71h-3.29v22.29    c0,0.94,0.76,1.71,1.71,1.71h10.58c0.94,0,1.71-0.76,1.71-1.71V50.65H92.46z"/>
	<path id="A#0" class="st0" d="M90.76,48.94V13.11c0-0.94,0.76-1.71,1.71-1.71h8.58c0.94,0,1.71,0.76,1.71,1.71v35.83  c0,0.94-0.76,1.71-1.71,1.71h-8.58C91.52,50.65,90.76,49.89,90.76,48.94z"/>
	<path id="B0" class="st0" d="M109.92,13.29h-7.17v35.65c0,0.94-0.76,1.71-1.71,1.71h-3.42v22.29c0,0.94,0.76,1.71,1.71,1.71h10.58    c0.94,0,1.71-0.76,1.71-1.71V15C111.63,14.06,110.87,13.29,109.92,13.29z"/>
	<path id="C1" class="st0" d="M124.46,50.65c-0.94,0-1.71-0.76-1.71-1.71V13.29h-7.42c-0.94,0-1.71,0.76-1.71,1.71v57.94    c0,0.94,0.76,1.71,1.71,1.71h10.58c0.94,0,1.71-0.76,1.71-1.71V50.65H124.46z"/>
	<path id="C#1" class="st0" d="M122.76,48.94V13.11c0-0.94,0.76-1.71,1.71-1.71h8.58c0.94,0,1.71,0.76,1.71,1.71v35.83  c0,0.94-0.76,1.71-1.71,1.71h-8.58C123.52,50.65,122.76,49.89,122.76,48.94z"/>
	<path id="D1" class="st0" d="M140.34,50.65c-0.94,0-1.71-0.76-1.71-1.71V13.29h-3.88v35.65c0,0.94-0.76,1.71-1.71,1.71h-3.42v22.29    c0,0.94,0.76,1.71,1.71,1.71h10.58c0.94,0,1.71-0.76,1.71-1.71V50.65H140.34z"/>
	<path id="D#1" class="st0" d="M138.63,48.94V13.11c0-0.94,0.76-1.71,1.71-1.71h8.58c0.94,0,1.71,0.76,1.71,1.71v35.83  c0,0.94-0.76,1.71-1.71,1.71h-8.58C139.4,50.65,138.63,49.89,138.63,48.94z"/>
	<path id="E1" class="st0" d="M157.92,13.29h-7.29v35.65c0,0.94-0.76,1.71-1.71,1.71h-3.29v22.29c0,0.94,0.76,1.71,1.71,1.71h10.58    c0.94,0,1.71-0.76,1.71-1.71V15C159.63,14.06,158.87,13.29,157.92,13.29z"/>
</svg>